<?xml version="1.0" encoding="UTF-8"?>
<svg version="1.1" xmlns="http://www.w3.org/2000/svg" width="800" height="800">
<path d="M0 0 C2.15305053 0.04809377 4.306121 0.09519694 6.459198 0.14208984 C41.7634731 0.91314828 77.05099444 1.90926853 112.32662964 3.54638672 C113.62180511 3.60614685 114.91698059 3.66590698 116.25140381 3.72747803 C130.39967563 4.38884245 144.53912478 5.16573477 158.67428589 6.06201172 C160.56688141 6.18062561 160.56688141 6.18062561 162.49771118 6.30163574 C191.93320341 8.21853015 220.33219654 12.73745422 243.07662964 33.04638672 C243.91580933 33.74376953 244.75498901 34.44115234 245.61959839 35.15966797 C280.62498092 64.97514507 284.49135354 118.77108556 287.95553589 161.48779297 C288.73525576 171.33602842 289.44697325 181.18746996 290.07662964 191.04638672 C290.12275265 191.74808235 290.16887566 192.44977798 290.21639633 193.17273712 C291.22759699 208.96220222 291.25704079 224.75625553 291.27681828 240.57133961 C291.27979646 242.84392586 291.2839093 245.1165076 291.28832245 247.38909149 C291.30194877 254.58657875 291.31163244 261.78405504 291.31552434 268.98155427 C291.31952086 276.32125724 291.33166816 283.66082922 291.35787964 291.00048828 C291.48872869 328.46060611 291.22595499 365.68676705 288.07662964 403.04638672 C287.91591435 404.98570171 287.7552091 406.92501753 287.59451294 408.86433411 C285.92372663 428.83474714 284.19919178 448.60435586 279.07662964 468.04638672 C278.74042603 469.34793701 278.74042603 469.34793701 278.39743042 470.67578125 C270.54842409 500.44882927 256.69061016 526.47181715 229.76803589 542.96435547 C224.10510449 546.24822961 218.22499836 548.79316951 212.07662964 551.04638672 C211.05440308 551.42408203 210.03217651 551.80177734 208.97897339 552.19091797 C194.00270086 557.24611995 177.88662893 558.5015284 162.20162964 559.54638672 C161.34159332 559.60575409 160.48155701 559.66512146 159.59545898 559.72628784 C83.60394473 564.92621182 7.22658495 566.33279465 -68.92337036 567.04638672 C-70.7843335 567.06442352 -70.7843335 567.06442352 -72.68289185 567.08282471 C-163.58717975 567.92630671 -254.80980251 566.09705379 -345.61087036 561.60888672 C-346.77477295 561.55330597 -347.93867554 561.49772522 -349.1378479 561.44046021 C-434.10295565 557.30904671 -434.10295565 557.30904671 -462.92337036 531.04638672 C-463.40402954 530.61342285 -463.88468872 530.18045898 -464.37991333 529.734375 C-472.08921154 522.70969572 -478.12132481 515.3935372 -482.92337036 506.04638672 C-483.25288696 505.40523926 -483.58240356 504.7640918 -483.92190552 504.10351562 C-488.43755007 495.09166258 -491.81524631 485.83049203 -494.67337036 476.17138672 C-494.94286499 475.26477295 -495.21235962 474.35815918 -495.49002075 473.42407227 C-502.00889145 450.33799461 -503.91264937 426.84225228 -505.92337036 403.04638672 C-505.99663229 402.17982578 -506.06989422 401.31326485 -506.14537621 400.42044449 C-509.20657944 363.69921245 -509.39309933 327.04140649 -509.30907744 290.2246114 C-509.29776698 284.6928981 -509.30184963 279.16134607 -509.31448364 273.62963867 C-509.59776024 146.30376196 -509.59776024 146.30376196 -496.92337036 98.04638672 C-496.57919067 96.72670898 -496.57919067 96.72670898 -496.22805786 95.38037109 C-493.14010867 83.81752838 -489.22888428 72.77895802 -483.92337036 62.04638672 C-483.62736938 61.44101074 -483.33136841 60.83563477 -483.02639771 60.21191406 C-472.09258358 38.31475092 -452.01211648 22.55152955 -429.20071411 14.25732422 C-420.62201946 11.40273183 -412.04909079 9.58695266 -403.08352661 8.47607422 C-402.08365219 8.34978638 -401.08377777 8.22349854 -400.05360413 8.09338379 C-390.04992721 6.87228093 -380.04464028 6.12379633 -369.98587036 5.54638672 C-368.50423904 5.45783417 -368.50423904 5.45783417 -366.99267578 5.36749268 C-319.86668705 2.57283596 -272.57511007 0.95815944 -225.37454224 0.14355469 C-221.42253046 0.07501582 -217.47081194 -0.00312845 -213.51907349 -0.0859375 C-142.36886465 -1.56902206 -71.14822286 -1.59881232 0 0 Z " fill="#CD1211" transform="translate(508.9233703613281,116.95361328125)"/>
<path d="M0 0 C9.73727476 4.86863738 19.46243421 9.73819003 29.125 14.75 C30.87417725 15.65649292 30.87417725 15.65649292 32.65869141 16.58129883 C39.61412488 20.19524318 46.51456125 23.8966593 53.375 27.6875 C64.11472413 33.61890961 75.03814802 39.17934647 85.96356201 44.75790405 C95.87580667 49.82160457 105.72319105 54.96247007 115.45703125 60.36328125 C124.36968887 65.27268143 133.43862024 69.87326815 142.5 74.5 C153.35750699 80.04403825 164.16538954 85.63948355 174.83056641 91.54785156 C187.72861922 98.65969805 200.89100373 105.28782471 214 112 C211.95325348 114.20755882 210.06213741 115.65994327 207.38085938 117.01782227 C206.66160278 117.3857338 205.94234619 117.75364532 205.20129395 118.13270569 C204.03430969 118.71863747 204.03430969 118.71863747 202.84375 119.31640625 C202.02741089 119.73236557 201.21107178 120.14832489 200.36999512 120.57688904 C197.74941085 121.91091609 195.12491075 123.23700939 192.5 124.5625 C189.0926417 126.29079037 185.68686477 128.02218327 182.28125 129.75390625 C181.43050903 130.18587311 180.57976807 130.61783997 179.70324707 131.06289673 C172.21556045 134.87200977 164.78092673 138.77787187 157.35351562 142.70288086 C151.42080565 145.83767215 145.46099271 148.9193648 139.5 152 C131.82007535 155.97518738 124.1467014 159.96124926 116.5 164 C107.68126227 168.65778401 98.82544679 173.24302091 89.96875 177.828125 C83.46704484 181.19612542 76.97464936 184.58029083 70.5 188 C62.85329318 192.0387536 55.1795868 196.02415302 47.5 200 C39.53147093 204.12653985 31.5665719 208.25926973 23.625 212.4375 C22.49106812 213.03377197 22.49106812 213.03377197 21.33422852 213.64208984 C17.88342398 215.46161193 14.44272342 217.29696559 11.01953125 219.16796875 C10.40964355 219.50062744 9.79975586 219.83328613 9.17138672 220.17602539 C7.56889154 221.05308802 5.96983366 221.93642317 4.37109375 222.8203125 C2 224 2 224 0 224 C0 150.08 0 76.16 0 0 Z " fill="#FFFFFF" transform="translate(318,279)"/>
<path d="M0 0 C0.66 0.33 1.32 0.66 2 1 C-4.27 7.27 -10.54 13.54 -17 20 C-17 15.78773475 -14.62438852 14.02396665 -11.875 11.125 C-11.1634375 10.34962891 -11.1634375 10.34962891 -10.4375 9.55859375 C-7.17703371 6.06020154 -3.72611621 2.99637238 0 0 Z " fill="#730A0A" transform="translate(51,147)"/>
</svg>
